<?xml version="1.0" standalone="no"?>
<!DOCTYPE svg PUBLIC "-//W3C//DTD SVG 20010904//EN"
 "http://www.w3.org/TR/2001/REC-SVG-20010904/DTD/svg10.dtd">
<svg version="1.0" xmlns="http://www.w3.org/2000/svg"
 width="1187.000000pt" height="1187.000000pt" viewBox="0 0 1187.000000 1187.000000"
 preserveAspectRatio="xMidYMid meet">
<metadata>
Created by potrace 1.14, written by Peter Selinger 2001-2017
</metadata>
<g transform="translate(0.000000,1187.000000) scale(0.100000,-0.100000)"
fill="#000000" stroke="none">
<path d="M5760 11697 c-41 -4 -137 -8 -212 -9 -75 -1 -136 -4 -134 -7 2 -3
-28 -6 -67 -7 -40 -1 -88 -4 -107 -8 -19 -3 -46 -8 -60 -11 -35 -7 -138 -17
-182 -19 -20 0 -34 -4 -32 -7 2 -4 -22 -10 -54 -14 -31 -4 -68 -10 -82 -12
-14 -2 -35 -4 -47 -4 -13 1 -23 -4 -23 -9 0 -6 -3 -9 -7 -8 -15 4 -113 -14
-113 -20 0 -4 -12 -8 -27 -9 -54 -4 -78 -8 -83 -15 -3 -4 -17 -8 -32 -10 -15
-2 -30 -7 -34 -10 -3 -4 -12 -4 -19 -2 -7 3 -16 1 -19 -5 -4 -5 -31 -13 -61
-16 -30 -4 -55 -12 -55 -17 0 -5 -4 -6 -10 -3 -5 3 -10 1 -10 -5 0 -6 -4 -9
-9 -5 -9 5 -29 -1 -116 -34 -67 -26 -118 -40 -126 -35 -5 3 -9 0 -9 -6 0 -6
-4 -8 -10 -5 -5 3 -10 1 -10 -5 0 -6 -4 -9 -9 -5 -5 3 -12 1 -16 -5 -3 -5 -17
-10 -31 -10 -13 0 -24 -4 -24 -10 0 -5 -8 -10 -18 -10 -10 0 -33 -8 -52 -18
-19 -9 -42 -17 -50 -17 -8 0 -21 -5 -28 -12 -7 -7 -23 -13 -36 -13 -12 0 -27
-5 -34 -12 -7 -7 -12 -8 -12 -3 0 6 -3 6 -8 0 -7 -11 -90 -53 -107 -55 -5 -1
-18 -9 -27 -17 -10 -9 -18 -13 -18 -8 0 4 -7 1 -17 -6 -9 -8 -17 -13 -17 -12
-3 7 -46 -11 -46 -19 0 -5 -5 -6 -10 -3 -6 3 -17 -1 -26 -9 -8 -9 -24 -16 -35
-16 -10 0 -19 -3 -19 -7 0 -10 -89 -49 -102 -45 -5 1 -7 -2 -3 -8 5 -9 -1 -12
-21 -9 -4 0 -10 -3 -13 -8 -3 -4 -23 -16 -43 -25 -21 -10 -38 -23 -38 -28 0
-6 -4 -9 -9 -6 -4 3 -23 -6 -41 -19 -18 -13 -36 -22 -40 -20 -5 3 -11 -2 -14
-11 -3 -8 -10 -13 -15 -10 -5 3 -14 -1 -21 -9 -7 -8 -18 -15 -25 -15 -7 0 -18
-7 -25 -15 -7 -8 -16 -12 -21 -9 -5 3 -9 0 -9 -5 0 -6 -5 -11 -11 -11 -6 0
-17 -6 -24 -12 -33 -30 -43 -37 -48 -32 -2 2 -10 -2 -17 -11 -7 -8 -18 -15
-25 -15 -7 0 -16 -7 -19 -16 -3 -8 -10 -13 -15 -9 -5 3 -16 -4 -24 -15 -7 -11
-17 -17 -20 -13 -4 3 -7 1 -7 -5 0 -7 -6 -12 -14 -12 -7 0 -19 -7 -26 -15 -7
-8 -16 -12 -21 -9 -5 3 -9 0 -9 -6 0 -6 -15 -17 -32 -25 -18 -8 -29 -14 -24
-15 6 0 -18 -18 -52 -40 -34 -22 -62 -45 -62 -51 0 -6 -4 -8 -9 -4 -6 3 -15
-4 -21 -15 -6 -11 -18 -20 -26 -20 -8 0 -12 -4 -9 -10 6 -9 -8 -14 -27 -11 -5
0 -8 -6 -8 -15 0 -8 -4 -13 -9 -9 -6 3 -14 -3 -20 -12 -6 -10 -11 -14 -11 -9
0 5 -11 -3 -25 -18 -14 -15 -25 -23 -25 -19 0 4 -5 0 -11 -9 -5 -10 -14 -18
-19 -18 -5 0 -22 -12 -38 -27 -61 -60 -125 -113 -134 -113 -5 0 -7 -4 -3 -9 3
-5 -4 -12 -15 -16 -11 -3 -20 -13 -20 -21 0 -8 -4 -14 -10 -14 -10 0 -43 -26
-92 -72 -16 -16 -33 -28 -39 -28 -6 0 -8 -4 -4 -9 3 -6 -4 -15 -15 -21 -11 -6
-18 -15 -15 -21 4 -5 0 -9 -8 -9 -8 0 -21 -8 -28 -17 -12 -14 -12 -16 0 -8 10
5 12 4 7 -3 -4 -7 -11 -12 -16 -12 -14 0 -100 -87 -100 -101 0 -7 -3 -10 -6
-6 -7 7 -34 -17 -34 -30 0 -4 -9 -14 -20 -21 -12 -7 -18 -17 -15 -22 3 -5 -3
-11 -14 -15 -11 -3 -27 -18 -36 -33 -10 -15 -29 -37 -43 -49 -14 -13 -21 -23
-17 -23 5 0 1 -6 -10 -13 -10 -8 -15 -19 -11 -26 4 -6 4 -11 -1 -10 -21 4 -33
-2 -33 -16 0 -8 -7 -15 -16 -15 -8 0 -12 -4 -9 -10 3 -5 1 -10 -4 -10 -6 0
-11 -7 -11 -15 0 -7 -6 -18 -13 -22 -8 -4 -24 -22 -37 -40 -13 -18 -27 -30
-32 -27 -5 3 -8 2 -7 -3 4 -15 -14 -48 -33 -61 -10 -7 -18 -20 -18 -29 0 -9
-3 -13 -7 -10 -5 6 -49 -53 -44 -61 1 -1 -8 -12 -19 -24 -11 -12 -20 -28 -20
-35 0 -8 -4 -12 -9 -9 -4 3 -17 -12 -27 -33 -10 -22 -22 -37 -26 -35 -5 3 -8
-1 -8 -9 0 -8 -7 -20 -15 -27 -9 -7 -13 -15 -11 -17 2 -3 -3 -13 -12 -23 -28
-31 -39 -45 -52 -70 -7 -14 -19 -31 -27 -38 -7 -7 -13 -19 -13 -27 0 -7 -5
-15 -10 -17 -6 -2 -12 -13 -13 -25 0 -12 -5 -19 -9 -17 -4 3 -8 0 -8 -6 0 -6
-4 -8 -10 -5 -5 3 -7 0 -4 -8 3 -8 -2 -21 -10 -30 -8 -8 -12 -17 -9 -21 4 -3
1 -6 -5 -6 -7 0 -12 -7 -12 -15 0 -8 -5 -15 -11 -15 -5 0 -8 -4 -5 -8 3 -5 -3
-18 -12 -28 -10 -10 -20 -23 -21 -29 -10 -30 -16 -42 -32 -66 -10 -14 -16 -29
-12 -33 3 -3 1 -6 -5 -6 -6 0 -13 -13 -17 -30 -4 -16 -10 -30 -15 -30 -7 0
-21 -32 -24 -55 -1 -5 -7 -15 -15 -21 -9 -7 -11 -16 -6 -25 5 -8 4 -11 0 -6
-7 6 -34 -38 -39 -63 -1 -3 -5 -11 -9 -17 -5 -7 -6 -13 -3 -13 3 0 -3 -9 -15
-21 -11 -11 -18 -27 -15 -35 3 -8 1 -14 -5 -14 -6 0 -7 -4 -4 -10 3 -5 1 -10
-4 -10 -6 0 -10 -3 -10 -7 3 -21 -2 -33 -13 -27 -6 4 -8 3 -4 -4 5 -9 -28 -88
-43 -102 -4 -3 -6 -9 -7 -15 -3 -31 -18 -75 -26 -75 -6 0 -8 -7 -4 -15 3 -8 1
-15 -5 -15 -6 0 -8 -4 -4 -9 3 -5 -4 -26 -16 -45 -11 -20 -18 -36 -15 -36 4 0
0 -13 -9 -30 -9 -16 -12 -30 -8 -30 5 0 1 -5 -8 -10 -10 -6 -15 -21 -14 -39 1
-17 -4 -32 -11 -35 -8 -3 -11 -12 -8 -21 3 -8 2 -15 -2 -15 -8 0 -12 -16 -17
-72 -1 -9 -5 -14 -9 -12 -8 5 -12 -11 -9 -30 1 -5 -6 -18 -16 -29 -12 -14 -13
-18 -3 -12 13 8 13 7 1 -8 -7 -9 -10 -17 -6 -17 4 0 3 -6 -3 -12 -5 -7 -13
-29 -16 -48 -4 -19 -11 -46 -17 -60 -5 -14 -11 -36 -13 -50 -3 -14 -5 -25 -6
-25 -1 0 -3 -11 -6 -25 -2 -14 -7 -32 -11 -40 -3 -8 -5 -21 -4 -29 1 -7 -2
-11 -6 -8 -5 3 -10 -4 -10 -16 -3 -47 -12 -104 -22 -129 -5 -14 -7 -29 -4 -32
4 -3 2 -6 -3 -6 -5 0 -9 -15 -9 -32 1 -18 -3 -39 -9 -47 -9 -12 -8 -13 3 -6
11 6 12 5 5 -6 -5 -8 -10 -30 -12 -49 -2 -19 -4 -43 -5 -52 -1 -9 -6 -14 -11
-11 -5 4 -7 -1 -3 -10 3 -10 2 -17 -2 -17 -5 0 -8 -8 -6 -17 1 -10 -2 -24 -8
-30 -6 -9 -6 -13 2 -13 7 0 9 -5 5 -12 -4 -6 -8 -30 -10 -53 -1 -23 -6 -57
-11 -76 -6 -19 -9 -44 -8 -56 1 -13 -1 -23 -4 -23 -4 0 -6 -18 -6 -41 0 -22
-3 -43 -8 -46 -4 -2 -3 -11 3 -18 8 -9 8 -15 0 -20 -6 -3 -8 -10 -5 -15 3 -5
1 -11 -5 -15 -6 -4 -7 -12 -3 -18 8 -12 6 -144 -2 -157 -3 -5 0 -12 5 -15 8
-5 6 -13 -6 -26 -12 -13 -13 -19 -4 -19 10 0 10 -3 1 -14 -8 -10 -9 -16 -1
-21 6 -3 7 -11 4 -17 -10 -16 -12 -78 -2 -72 4 3 8 -2 8 -11 0 -10 -5 -14 -12
-9 -10 6 -11 4 0 -7 14 -15 17 -33 4 -25 -5 3 -9 -1 -9 -9 0 -8 5 -15 11 -15
6 0 5 -4 -2 -9 -20 -12 -19 -188 1 -207 4 -4 1 -14 -6 -22 -8 -11 -8 -14 0 -9
6 4 15 3 18 -3 4 -6 1 -9 -7 -8 -7 2 -12 -3 -10 -9 1 -7 -4 -13 -10 -13 -8 0
-5 -7 6 -15 11 -8 15 -15 9 -15 -7 0 -11 -9 -10 -20 1 -11 4 -20 7 -20 9 0 5
-74 -4 -89 -6 -10 -5 -12 2 -7 8 5 10 -10 9 -49 -2 -30 -1 -55 2 -55 4 0 5
-29 5 -65 -2 -46 1 -63 10 -58 6 4 5 -1 -3 -10 -7 -9 -9 -17 -4 -17 5 0 10
-16 11 -35 3 -54 5 -65 12 -65 3 0 6 -8 7 -17 1 -10 2 -33 4 -50 1 -18 6 -33
12 -33 5 0 5 -6 -2 -13 -8 -10 -7 -17 2 -27 10 -10 9 -11 -2 -5 -10 6 -12 4
-7 -4 4 -7 10 -31 13 -54 2 -23 10 -48 16 -56 10 -12 9 -13 -2 -6 -11 6 -12 5
-5 -6 10 -17 13 -32 16 -86 2 -24 6 -43 10 -43 4 0 5 -12 2 -26 -3 -14 -1 -23
4 -20 5 3 7 -6 4 -19 -2 -14 0 -25 5 -25 5 0 10 -14 11 -32 2 -18 6 -35 10
-38 9 -6 9 -26 0 -35 -3 -3 0 -18 7 -32 8 -15 12 -30 9 -35 -3 -4 1 -11 8 -13
8 -3 13 -18 12 -35 -1 -17 3 -30 8 -30 6 0 8 -9 5 -20 -3 -10 1 -24 7 -30 7
-5 13 -26 14 -47 1 -20 6 -39 10 -42 5 -3 8 -17 7 -31 -1 -14 5 -34 14 -44 10
-12 11 -16 2 -11 -9 5 -8 0 3 -17 9 -14 13 -28 9 -31 -3 -4 -1 -7 5 -7 7 0 12
-11 12 -24 0 -14 5 -28 10 -31 6 -4 8 -10 5 -15 -3 -5 2 -15 10 -24 10 -10 12
-17 5 -21 -8 -5 -8 -11 0 -19 5 -7 11 -25 12 -39 1 -14 6 -23 12 -20 5 4 7 -3
4 -15 -4 -12 -2 -20 2 -17 5 3 12 -10 16 -30 3 -19 10 -38 15 -41 5 -3 9 -14
9 -25 0 -10 4 -19 9 -19 5 0 8 -11 6 -25 -1 -14 4 -29 12 -34 8 -4 16 -12 16
-17 1 -5 5 -8 9 -7 4 2 3 -8 -2 -22 -8 -20 -6 -27 11 -36 17 -9 18 -13 7 -27
-7 -9 -8 -14 -3 -9 8 7 74 -115 75 -140 0 -6 4 -13 10 -15 5 -1 11 -14 12 -28
2 -14 11 -34 21 -44 9 -11 17 -28 17 -38 0 -10 5 -18 11 -18 5 0 7 -5 4 -10
-3 -6 -1 -10 4 -10 6 0 11 -3 10 -7 -2 -16 14 -53 23 -53 5 0 7 -4 3 -9 -3 -5
2 -16 10 -24 8 -9 15 -22 15 -29 0 -8 5 -19 12 -26 7 -7 8 -12 3 -12 -5 0 0
-7 11 -16 10 -8 13 -12 5 -8 -9 5 -12 3 -7 -4 4 -7 13 -12 21 -12 8 0 11 -7 8
-19 -3 -10 1 -22 8 -26 8 -6 10 -4 4 5 -5 9 -4 11 4 6 6 -4 9 -11 6 -16 -3 -5
2 -16 11 -24 8 -9 12 -16 8 -16 -3 0 -1 -6 5 -13 6 -8 8 -17 4 -20 -3 -4 -1
-7 5 -7 7 0 12 -7 12 -15 0 -8 9 -24 20 -35 11 -11 20 -26 20 -34 0 -8 10 -22
22 -30 14 -10 17 -16 8 -16 -9 0 -8 -5 6 -15 10 -8 15 -15 10 -15 -5 0 1 -9
13 -19 12 -11 23 -23 23 -28 3 -25 12 -42 24 -47 8 -3 14 -12 14 -19 0 -8 7
-20 15 -27 8 -7 13 -16 10 -20 -3 -5 4 -11 14 -15 12 -4 18 -12 14 -21 -3 -7
0 -14 5 -14 6 0 14 -9 17 -20 4 -11 11 -18 16 -15 5 4 9 -2 9 -12 0 -10 13
-32 28 -49 16 -17 34 -45 41 -61 6 -16 23 -37 36 -47 14 -10 22 -22 19 -27 -3
-5 2 -9 11 -9 8 0 18 -8 22 -17 3 -10 19 -34 34 -54 16 -20 25 -39 21 -43 -4
-4 0 -6 8 -4 8 1 14 -3 12 -9 -1 -7 5 -13 14 -13 8 0 13 -4 10 -8 -3 -5 4 -14
14 -22 10 -8 17 -17 14 -21 -3 -5 4 -14 16 -21 11 -7 20 -18 20 -24 0 -7 7
-15 16 -18 8 -3 12 -11 8 -17 -4 -8 -3 -9 4 -5 7 4 12 2 12 -4 0 -6 4 -8 10
-5 10 6 15 -9 10 -30 -1 -5 1 -7 5 -3 10 9 31 -12 39 -40 4 -12 14 -22 22 -22
8 0 14 -4 14 -8 0 -5 10 -19 23 -32 12 -14 21 -28 19 -32 -1 -5 3 -8 9 -8 6 0
20 -11 31 -25 11 -14 24 -23 29 -20 8 6 13 -8 10 -27 0 -5 5 -8 13 -8 8 0 17
-7 20 -16 3 -8 11 -12 16 -9 6 4 9 2 8 -3 -3 -10 138 -152 152 -152 6 0 10 -7
10 -15 0 -8 4 -14 8 -13 12 4 71 -60 63 -68 -3 -4 2 -4 11 -1 11 4 18 1 18 -7
0 -7 12 -18 26 -24 16 -8 22 -17 18 -25 -4 -6 -4 -9 0 -5 8 7 39 -17 89 -67
16 -16 33 -29 38 -27 5 1 9 -5 9 -13 0 -8 7 -15 15 -15 7 0 19 -8 24 -17 6
-10 11 -14 11 -9 0 5 7 3 15 -4 8 -7 12 -17 8 -23 -3 -6 -1 -7 6 -3 7 5 22 -2
36 -16 34 -33 53 -48 64 -48 5 0 12 -7 15 -16 4 -9 9 -14 12 -11 8 8 33 -16
27 -25 -2 -5 2 -8 11 -8 8 0 17 -6 19 -12 4 -10 6 -10 6 1 1 7 13 0 30 -18 16
-17 33 -31 38 -31 4 0 21 -11 37 -25 28 -24 40 -29 60 -26 5 1 6 -5 2 -14 -3
-9 -2 -13 3 -10 6 3 14 -3 20 -12 6 -11 11 -13 11 -5 0 8 10 3 25 -12 13 -13
34 -27 45 -31 11 -3 20 -10 20 -15 0 -5 16 -14 34 -21 19 -7 33 -16 30 -21 -3
-4 4 -8 15 -8 12 0 21 -3 21 -8 0 -4 9 -12 20 -17 89 -44 148 -80 144 -87 -3
-4 2 -8 11 -8 9 0 29 -9 44 -19 15 -11 34 -21 41 -23 14 -3 22 -8 57 -38 10
-8 19 -14 20 -13 9 7 66 -12 76 -26 7 -9 21 -18 32 -19 11 -2 22 -8 23 -13 2
-5 8 -9 13 -9 4 0 32 -11 61 -24 29 -13 56 -24 59 -23 4 1 15 -5 25 -14 11 -8
38 -21 62 -29 23 -7 42 -17 42 -22 0 -5 4 -7 9 -3 5 3 12 1 16 -5 4 -6 11 -8
16 -5 5 4 9 1 9 -4 0 -6 9 -11 20 -11 11 0 20 -4 20 -8 0 -4 12 -9 27 -10 15
-1 29 -5 32 -10 10 -12 54 -34 46 -22 -3 6 10 1 30 -10 19 -11 44 -20 55 -20
10 0 22 -5 25 -10 4 -6 11 -8 16 -5 5 4 9 1 9 -5 0 -6 4 -9 9 -5 5 3 13 0 16
-6 4 -5 13 -8 21 -5 8 3 14 2 14 -2 0 -4 10 -9 22 -9 13 -1 24 -7 26 -13 2 -5
7 -8 11 -5 4 2 32 -5 62 -16 64 -25 86 -31 116 -33 11 0 19 -4 16 -8 -2 -5 5
-8 16 -8 11 0 22 -4 26 -10 3 -5 12 -7 20 -4 7 3 22 1 32 -4 10 -6 36 -13 58
-16 22 -4 44 -11 49 -16 4 -4 15 -6 24 -3 8 4 13 2 10 -3 -4 -5 6 -10 20 -11
32 -1 70 -8 132 -23 25 -7 54 -14 65 -17 11 -2 45 -6 75 -9 30 -3 62 -8 70
-11 8 -3 18 -7 23 -8 4 -2 8 -3 10 -5 2 -2 42 -7 112 -14 22 -2 51 -6 65 -9
58 -14 198 -26 362 -31 69 -2 131 -7 137 -11 15 -9 647 -9 696 1 22 4 81 9
130 10 128 5 189 9 200 16 6 3 20 4 33 3 12 -1 22 2 22 6 0 4 16 6 35 5 19 -1
35 1 35 4 0 3 25 5 55 4 30 0 55 4 55 9 0 5 11 7 25 5 14 -3 25 -1 25 6 0 6 4
5 9 -3 5 -8 10 -9 12 -3 5 13 44 22 114 27 28 2 50 4 50 5 0 4 43 13 72 14 17
0 31 5 30 10 -1 4 14 9 33 11 19 1 55 8 80 15 54 16 69 20 93 22 9 1 17 6 17
11 0 5 7 6 16 3 9 -4 22 -2 28 3 6 6 23 12 36 15 14 2 32 7 40 10 8 3 33 8 55
11 21 3 43 11 47 18 4 6 8 8 8 3 0 -5 7 -3 15 4 8 7 15 10 15 6 0 -3 16 0 35
8 19 8 35 13 35 10 0 -3 7 2 16 10 8 9 26 16 39 16 13 0 27 5 30 11 4 6 13 8
21 5 8 -3 14 -2 14 3 0 4 6 8 13 8 6 0 33 10 59 21 26 12 52 22 58 22 6 0 9 4
6 9 -4 5 3 7 14 4 12 -3 20 0 20 6 0 7 5 9 10 6 6 -4 17 -1 25 5 8 7 15 9 15
4 0 -5 5 -1 11 8 5 10 16 15 25 11 8 -3 59 16 112 42 53 26 111 53 127 60 97
42 165 77 165 86 0 6 5 7 11 4 6 -4 22 4 36 16 15 13 23 18 19 12 -4 -7 -2
-13 3 -13 6 0 11 5 11 11 0 5 4 8 9 4 6 -3 14 3 20 12 6 10 11 14 11 9 0 -5 7
-3 15 4 8 7 15 10 15 6 0 -3 9 3 20 14 11 11 30 20 42 20 12 0 18 3 15 6 -4 4
13 16 36 27 23 12 44 24 47 28 8 10 69 40 76 37 3 -2 12 8 19 22 8 14 14 21
15 16 0 -5 8 -2 17 5 14 12 16 12 9 -1 -7 -13 -6 -13 6 0 18 21 68 52 68 43 0
-5 5 0 11 10 5 9 17 17 24 17 8 0 15 5 15 10 0 6 6 10 13 10 7 0 23 9 35 20
12 12 22 18 22 15 0 -6 18 7 57 43 13 12 28 20 33 17 5 -3 16 5 24 17 9 12 16
19 16 15 0 -5 6 -2 13 5 8 7 26 22 41 33 16 11 34 26 41 33 8 6 18 12 24 12 5
0 14 6 18 14 4 7 25 25 47 40 21 14 47 35 56 47 10 11 22 19 27 18 4 -1 13 7
18 17 6 11 17 20 25 22 8 2 21 11 28 20 7 9 18 16 23 14 6 -1 7 2 4 8 -4 7 2
14 14 17 12 3 21 10 21 15 0 5 3 7 8 5 4 -3 18 10 32 29 14 18 34 34 45 34 17
0 17 2 5 10 -13 9 -13 10 0 10 8 0 41 27 73 60 32 33 63 60 67 60 5 0 12 9 15
20 4 11 10 18 14 15 11 -6 43 30 34 38 -3 4 0 7 9 7 18 0 61 44 51 53 -3 4 -1
7 6 7 15 0 141 125 141 140 0 6 5 8 10 5 6 -3 10 -2 10 2 0 8 53 70 120 140
16 17 30 34 30 37 0 3 12 19 28 35 45 48 71 81 89 112 10 16 23 29 30 29 7 0
12 4 11 9 -2 5 9 22 24 39 14 17 24 33 21 36 -4 3 -2 6 4 6 6 0 16 13 23 30 7
16 16 27 21 24 5 -3 9 0 9 7 0 6 8 18 18 26 11 10 12 12 2 8 -10 -4 -9 -2 3 8
9 8 17 17 17 21 0 4 11 19 25 34 14 15 23 33 20 39 -2 7 2 13 10 13 8 0 15 4
15 8 0 5 9 19 20 32 11 12 17 26 15 30 -3 4 2 10 10 14 8 3 15 12 15 21 0 8 5
15 10 15 6 0 10 7 10 15 0 8 9 24 19 34 11 11 17 22 13 25 -3 3 0 6 7 6 8 0
11 6 7 16 -3 8 -2 13 3 10 8 -6 20 12 17 25 0 4 10 17 24 29 14 12 19 18 12
15 -11 -6 -12 -3 -2 14 6 12 16 18 22 15 7 -4 8 -2 4 5 -4 6 -2 18 4 26 7 8 9
15 4 15 -5 0 -1 5 9 11 9 6 15 14 12 20 -4 5 -1 9 4 9 6 0 11 7 11 15 0 8 5
15 12 15 6 0 8 3 5 6 -4 4 3 20 14 35 11 16 15 29 9 29 -6 0 -8 5 -5 10 4 6
11 8 16 5 5 -4 9 -1 9 4 0 22 2 26 17 43 9 10 13 25 9 34 -6 15 -4 15 11 3 10
-7 15 -10 11 -5 -3 4 10 40 30 79 36 72 38 78 41 98 0 5 7 7 14 3 6 -4 9 -4 5
1 -4 4 -3 17 3 28 9 15 8 18 -2 11 -7 -4 -3 7 10 24 12 18 19 32 14 32 -4 0 0
5 11 11 13 8 15 13 6 19 -9 6 -7 13 9 29 20 20 25 33 22 58 -1 7 3 13 9 13 5
0 10 9 10 19 0 11 5 21 10 23 6 2 11 17 13 35 1 17 5 29 10 26 4 -2 7 4 7 15
0 10 3 22 7 26 7 7 14 30 16 58 1 9 4 15 8 12 4 -2 10 3 13 12 4 10 2 13 -7 9
-6 -4 -3 1 7 9 14 11 15 16 6 16 -9 0 -8 4 5 13 10 8 15 19 11 25 -3 6 0 17 8
25 11 11 12 17 3 27 -9 10 -9 11 1 6 11 -6 17 11 13 37 0 4 3 7 9 7 6 0 9 3 9
8 -1 4 0 10 1 15 3 9 4 15 13 60 5 20 13 37 19 37 6 0 8 3 5 6 -3 4 -2 15 4
25 7 14 6 19 -3 19 -11 0 -10 2 0 9 7 4 14 18 15 29 1 12 6 22 12 22 5 0 3 5
-5 10 -10 6 -11 10 -2 10 6 0 12 7 12 16 0 8 4 13 8 10 5 -3 8 5 7 17 -1 12 1
32 6 43 4 13 3 26 -4 34 -8 9 -9 11 -1 7 10 -6 21 16 28 53 1 3 5 11 9 17 5 8
3 13 -5 13 -10 0 -10 2 1 9 11 7 11 9 0 14 -9 3 -7 6 6 6 17 1 17 3 5 11 -12
8 -12 10 -1 10 8 0 11 7 8 20 -3 11 -2 20 2 20 4 0 8 7 9 15 1 8 3 22 4 30 1
8 6 15 11 15 5 0 4 6 -2 14 -9 11 -9 16 -1 21 7 4 10 16 7 26 -3 10 -1 21 3
24 5 3 7 14 5 25 -2 11 1 20 6 20 6 0 7 5 4 10 -3 6 -2 10 2 10 5 0 9 10 10
23 0 12 3 36 6 52 3 17 7 58 9 92 2 35 8 63 13 63 6 0 4 4 -3 9 -11 7 -10 9 3
15 9 3 13 10 10 16 -3 5 -1 10 6 10 9 0 9 3 0 14 -7 9 -8 17 -2 20 5 3 8 17 6
31 -1 14 2 25 6 25 5 0 9 5 9 11 0 5 -5 7 -12 3 -8 -5 -8 -3 -2 7 5 8 10 52
10 99 1 47 6 96 11 110 6 13 9 37 8 52 -1 16 2 28 7 28 6 0 5 7 -2 15 -7 8 -8
15 -3 15 5 0 9 25 9 55 -1 30 1 55 4 55 3 0 5 72 5 160 0 88 -3 160 -6 160
-10 0 -5 34 6 42 6 5 5 8 -2 8 -9 0 -10 7 -3 25 5 14 6 25 2 25 -4 0 -7 33 -6
72 1 40 -1 77 -4 82 -2 4 -6 26 -7 47 -3 28 0 37 8 33 8 -5 8 -2 0 7 -7 7 -13
33 -13 57 0 24 -5 53 -11 64 -9 16 -8 19 2 13 8 -5 10 -4 5 3 -4 6 -8 39 -10
72 -2 33 -10 68 -17 77 -9 10 -9 14 -2 10 8 -5 11 5 9 37 -2 24 -6 48 -10 55
-4 6 -5 11 -2 11 3 0 -2 22 -10 49 -8 28 -14 53 -13 58 1 4 0 10 -1 13 -1 3
-3 23 -4 45 -1 22 -5 46 -9 53 -5 6 -6 12 -3 12 2 0 0 15 -5 33 -12 40 -20 84
-22 120 0 15 -3 27 -7 27 -3 0 -7 14 -8 32 -2 17 -7 37 -12 43 -6 7 -11 31
-13 54 -1 22 -5 41 -9 41 -4 0 -7 8 -7 18 0 22 -5 44 -13 58 -4 6 -8 27 -10
47 -1 21 -6 37 -11 37 -4 0 -7 8 -6 18 1 9 -3 28 -8 42 -6 14 -9 28 -6 33 2 4
-2 7 -9 7 -9 0 -9 3 2 10 11 7 11 10 2 10 -7 0 -12 6 -10 13 1 6 -6 27 -16 45
-9 19 -15 36 -12 40 3 3 1 11 -5 19 -6 7 -9 13 -6 13 3 0 -5 27 -18 60 -13 33
-20 60 -17 60 4 0 0 5 -8 10 -13 9 -13 10 0 10 12 0 12 2 2 9 -7 4 -15 14 -16
22 -8 40 -19 68 -25 65 -4 -3 -8 6 -9 18 -1 13 -8 36 -16 51 -8 16 -13 32 -10
37 3 4 0 8 -5 8 -6 0 -10 3 -9 8 4 9 -17 63 -53 138 -16 33 -29 66 -29 72 0 7
-4 12 -10 12 -5 0 -7 7 -4 15 4 8 1 15 -5 15 -6 0 -10 3 -9 8 4 14 -13 52 -23
52 -6 0 -7 5 -4 10 3 6 2 10 -3 10 -6 0 -8 8 -5 19 3 10 -1 22 -8 26 -8 6 -10
4 -4 -5 5 -9 4 -11 -3 -6 -7 4 -12 16 -12 26 0 10 -7 25 -15 34 -9 8 -16 19
-17 23 -3 25 -22 63 -31 63 -6 0 -8 3 -4 6 3 4 -1 21 -10 38 -10 17 -16 34
-15 39 1 4 -3 7 -8 7 -6 0 -10 7 -10 15 0 8 -5 15 -11 15 -5 0 -7 5 -4 10 3 6
1 10 -5 10 -6 0 -8 5 -5 10 3 6 2 10 -2 10 -5 0 -16 18 -26 40 -9 22 -22 40
-28 40 -5 0 -7 5 -4 10 3 6 2 10 -2 10 -5 0 -15 17 -22 37 -8 20 -24 48 -37
62 -13 13 -21 28 -18 33 3 4 0 8 -5 8 -6 0 -11 6 -11 14 0 8 -7 17 -16 20 -8
3 -13 10 -10 14 3 5 -4 14 -14 22 -10 8 -17 17 -14 21 2 4 -2 14 -10 21 -7 8
-17 24 -20 36 -4 12 -12 19 -18 16 -6 -4 -9 -1 -6 6 2 8 -3 22 -11 31 -30 33
-42 49 -37 49 3 0 -8 15 -25 32 -16 18 -32 41 -35 50 -3 10 -10 18 -15 18 -5
0 -9 6 -9 13 0 7 -9 19 -20 27 -11 8 -20 20 -20 27 0 7 -4 13 -10 13 -5 0 -10
7 -10 15 0 8 -4 15 -10 15 -5 0 -10 5 -10 10 0 12 -32 45 -51 53 -11 4 -11 6
1 6 10 1 8 6 -8 17 -12 8 -22 19 -22 25 0 9 -33 49 -78 96 -13 12 -21 23 -18
23 3 0 -7 13 -22 29 -15 15 -35 37 -44 47 -9 11 -23 24 -30 30 -16 14 -48 53
-48 59 0 9 -49 52 -54 47 -3 -3 -6 0 -6 6 0 15 -271 282 -287 282 -7 0 -13 5
-13 11 0 10 -24 39 -34 39 -2 0 -22 18 -44 40 -21 22 -44 40 -51 40 -7 0 -10
4 -7 8 3 5 -6 15 -19 22 -13 7 -22 17 -19 22 3 5 2 7 -3 6 -13 -5 -53 28 -45
37 4 5 2 5 -4 2 -5 -3 -30 12 -55 34 -68 60 -69 60 -81 53 -6 -4 -9 -3 -6 2 2
5 -6 19 -19 31 -13 12 -23 20 -23 16 0 -3 -9 4 -20 17 -11 13 -20 20 -20 16 0
-4 -12 4 -27 18 -15 14 -30 23 -35 20 -4 -3 -8 2 -8 11 0 9 -4 13 -10 10 -5
-3 -10 -1 -10 4 0 6 -7 11 -16 11 -8 0 -12 5 -9 10 3 6 -1 10 -10 10 -8 0 -18
6 -21 14 -3 9 -12 12 -21 9 -11 -4 -14 -2 -9 5 4 7 1 12 -10 12 -9 0 -24 8
-33 18 -9 9 -29 24 -46 32 -27 14 -47 27 -79 55 -6 6 -18 11 -26 13 -8 2 -16
8 -18 13 -2 5 -10 9 -18 9 -8 0 -14 4 -14 8 0 5 -16 14 -35 22 -19 8 -35 17
-35 22 0 4 -6 8 -13 8 -7 0 -23 9 -34 19 -12 11 -24 17 -27 14 -3 -4 -6 -1 -6
5 0 7 -3 11 -7 10 -16 -4 -53 14 -48 23 4 5 -1 9 -10 9 -17 0 -51 18 -73 38
-7 7 -18 10 -23 7 -5 -4 -9 -2 -9 3 0 5 -15 15 -32 22 -18 8 -40 19 -48 26 -8
7 -17 12 -20 12 -13 -2 -50 14 -50 23 0 5 -9 9 -20 9 -11 0 -20 4 -20 8 0 4
-10 9 -22 9 -13 1 -24 7 -26 13 -2 5 -10 10 -18 10 -9 0 -13 4 -10 8 2 4 -3 8
-12 9 -28 2 -92 27 -92 36 0 5 -4 6 -9 2 -5 -3 -12 -1 -16 5 -4 6 -11 8 -16 5
-5 -4 -9 -1 -9 4 0 6 -9 11 -20 11 -11 0 -20 5 -20 11 0 5 -4 8 -9 4 -5 -3
-13 0 -16 6 -4 5 -13 8 -21 5 -8 -3 -14 -2 -14 3 0 5 -20 14 -45 21 -25 7 -45
16 -45 20 0 4 -12 8 -26 8 -15 0 -29 4 -33 10 -3 5 -15 12 -26 14 -11 1 -23 7
-26 11 -3 4 -16 9 -27 10 -12 1 -22 5 -22 9 0 4 -8 8 -18 8 -10 0 -22 3 -26 7
-3 4 -17 8 -29 10 -12 2 -38 10 -58 18 -20 7 -39 11 -43 8 -3 -4 -6 -1 -6 6 0
7 -3 10 -7 8 -5 -3 -19 0 -33 6 -14 5 -31 11 -39 13 -8 1 -17 6 -20 11 -3 4
-19 9 -36 11 -16 1 -37 5 -45 9 -23 9 -42 13 -72 15 -16 0 -28 5 -28 10 0 4
-9 8 -19 8 -11 0 -22 6 -24 13 -4 8 -6 9 -6 0 -1 -12 -46 -4 -73 13 -7 5 -26
9 -43 10 -16 1 -32 3 -35 4 -3 1 -9 2 -13 1 -4 -1 -17 4 -28 10 -11 6 -33 11
-50 11 -16 1 -29 4 -29 9 0 4 -18 6 -40 5 -22 0 -40 2 -40 6 0 4 -8 6 -17 6
-23 -2 -95 12 -108 20 -10 6 -28 8 -156 16 -31 2 -61 6 -66 9 -5 4 -26 7 -46
9 -21 1 -37 5 -37 8 0 6 -17 7 -240 13 -91 3 -185 8 -210 12 -66 10 -304 11
-390 2z"/>
</g>
</svg>
